<svg width="72" height="63" viewBox="0 0 72 63" fill="none" xmlns="http://www.w3.org/2000/svg">
<g clip-path="url(#clip0_1184_84240)">
<path d="M55.6271 48.9136L49.921 52.8712L7.90232 23.8623C7.90232 23.8056 7.90232 23.7488 7.8856 23.692V21.1037C7.8856 20.2643 7.8856 19.4261 7.8856 18.5889V15.9539L55.6271 48.9136ZM43.9006 11.4753C41.3635 13.2119 38.8029 14.9152 36.2658 16.6519C36.1396 16.7666 35.9751 16.8302 35.8044 16.8302C35.6338 16.8302 35.4693 16.7666 35.3431 16.6519C32.2076 14.471 29.0554 12.3102 25.9165 10.1461C22.6139 7.85503 19.3134 5.5573 16.0152 3.25289L11.332 0H0C0.601699 0.420805 1.09643 0.774816 1.5945 1.11881L10.4763 7.27058C13.4045 9.30559 16.3317 11.3406 19.2577 13.3756C22.0122 15.2893 24.7599 17.2129 27.5177 19.1233C30.1351 20.9367 32.7592 22.7302 35.3766 24.547C35.4823 24.6427 35.6199 24.6958 35.7627 24.6958C35.9054 24.6958 36.043 24.6427 36.1488 24.547C38.2614 23.1009 40.3974 21.6782 42.5 20.2321C47.7326 16.6496 52.9607 13.0617 58.1843 9.46812L69.6032 1.66986C70.3921 1.13217 71.1777 0.584452 72 0H60.6346C55.0544 3.82287 49.4764 7.64797 43.9006 11.4753ZM7.94577 35.2474C7.92097 35.2955 7.90082 35.3458 7.8856 35.3977V40.1535C7.8856 41.102 7.8856 42.0505 7.8856 42.9956C7.88814 43.0533 7.90176 43.11 7.92572 43.1626L35.9716 62.533H35.9983L41.7044 58.5788L7.94577 35.2474ZM63.974 15.9706L43.1017 30.3915C43.1676 30.4804 43.2415 30.5631 43.3223 30.6386C45.0873 31.8877 46.8534 33.1312 48.6206 34.3691C48.6789 34.4004 48.7457 34.4121 48.8112 34.4025L63.9239 23.9492C63.9466 23.9048 63.9634 23.8576 63.974 23.8089V15.9706ZM63.9907 35.5514C61.6207 37.1845 59.3342 38.7642 57.021 40.3639L62.443 44.2046L63.9907 43.1325V35.5514Z" fill="url(#paint0_linear_1184_84240)"/>
</g>
<defs>
<linearGradient id="paint0_linear_1184_84240" x1="9.15586" y1="44.3849" x2="62.7417" y2="-9.24984" gradientUnits="userSpaceOnUse">
<stop stop-color="#1A44B7"/>
<stop offset="1" stop-color="#4760FF"/>
</linearGradient>
<clipPath id="clip0_1184_84240">
<rect width="72" height="62.5263" fill="white"/>
</clipPath>
</defs>
</svg>
